<svg xmlns="http://www.w3.org/2000/svg" width="24" height="24" viewBox="0 0 24 24" fill="none">
  <path d="M5.94355 6.64645L3.20711 3.91L3.91 3.20711L6.64645 5.94355L7.5 6.79711V5.59V3.5H8.5V8.5H3.5V7.5H5.59H6.79711L5.94355 6.64645ZM17.3536 5.94355L20.09 3.20711L20.7929 3.91L18.0564 6.64645L17.2029 7.5H18.41H20.5V8.5H15.5V3.5H16.5V5.59V6.79711L17.3536 5.94355ZM6.64645 18.0564L3.91 20.7929L3.20711 20.09L5.94355 17.3536L6.79711 16.5H5.59H3.5V15.5H8.5V20.5H7.5V18.41V17.2029L6.64645 18.0564ZM18.0564 17.3536L20.7929 20.09L20.09 20.7929L17.3536 18.0564L16.5 17.2029V18.41V20.5H15.5V15.5H20.5V16.5H18.41H17.2029L18.0564 17.3536Z" fill="#0B233F" stroke="#0B233F"/>
</svg>